<svg id="Layer_1" data-name="Layer 1" xmlns="http://www.w3.org/2000/svg" viewBox="0 0 600 600"><defs><style>.cls-1{fill:none;}.cls-2{fill:#fff;}.cls-3{fill:#3b82f6;}</style></defs><rect class="cls-1" width="600" height="600"/><path class="cls-2" d="M527.72,196.28Q512.59,155.42,485,127.5T418.66,85Q379.87,70.5,332.27,70.68q-55.51.25-93.33,8T184.08,93.23l.82,209.3,95.17-.37-.57-147a127.9,127.9,0,0,1,19.85-2.53c7.51-.45,16.54-.65,27.12-.7q29.28-.12,51.3,9.89A98.82,98.82,0,0,1,414.49,190q14.72,18.27,22.14,43.55t7.52,56.4q.24,64.1-29.21,101.1a87.71,87.71,0,0,1-32.71,25.28q-25.74,11.9-63.23,12a198,198,0,0,1-21.2-1v9.93q0,45.45-19.2,64.41a58,58,0,0,1-5.64,4.94c1.68.29,3.39.58,5.15.86a334.87,334.87,0,0,0,54,3.76A245.65,245.65,0,0,0,372,507.9a226.19,226.19,0,0,0,42.77-11.6A190.89,190.89,0,0,0,482,453q28.56-28.49,44.89-69.44t16.1-94Q542.81,237.07,527.72,196.28Z"/><path class="cls-3" d="M311.69,237.78V350.21q0,52.05-22,73.75a68.68,68.68,0,0,1-6.46,5.66q-20.47,16-50.88,16a97.88,97.88,0,0,1-31.89-5,57.41,57.41,0,0,1-24.79-16.42q-10.24-11.5-16.13-29.74t-5.9-44.33v-259H57V358.3q0,37.8,10.24,69.07t31.62,53.92q21.31,22.59,54.2,35.31t78.09,12.72q45.81,0,79.32-12.39t55.14-35a140.88,140.88,0,0,0,31-50.84c.47-1.12.84-2.24,1.22-3.36q10.51-31.63,10.52-69.4V237.78Z"/></svg>