<svg xmlns="http://www.w3.org/2000/svg" viewBox="0 0 516.25 194.72"><defs><style>.cls-1{fill:#fff;}.cls-2,.cls-3{fill:#3b82f6;}.cls-3{font-size:132.5px;font-family:Ubuntu-Bold, Ubuntu;font-weight:700;}</style></defs><g id="Layer_2" data-name="Layer 2"><g id="Layer_1-2" data-name="Layer 1"><path class="cls-1" d="M199.85,53.33a80.91,80.91,0,0,0-18.12-29.21,76.6,76.6,0,0,0-28.18-18Q137.08-.07,116.87,0,93.31.11,77.24,3.4T54,9.57l.35,88.86,40.41-.15-.25-62.43a54.13,54.13,0,0,1,8.43-1.08c3.19-.19,7-.28,11.52-.29a51.75,51.75,0,0,1,21.78,4.19,42,42,0,0,1,15.59,12,52.71,52.71,0,0,1,9.4,18.48,86,86,0,0,1,3.19,24q.1,27.21-12.4,42.92a37.29,37.29,0,0,1-13.89,10.74q-10.92,5-26.85,5.1a88.15,88.15,0,0,1-9-.42v4.21q0,19.31-8.15,27.35a23.48,23.48,0,0,1-2.39,2.1l2.19.36a140.4,140.4,0,0,0,22.92,1.6,104.43,104.43,0,0,0,16.93-1.42,96.13,96.13,0,0,0,18.15-4.93,81.19,81.19,0,0,0,28.57-18.36,86.36,86.36,0,0,0,19.05-29.48q6.93-17.39,6.84-39.92Q206.27,70.63,199.85,53.33Z"/><path class="cls-2" d="M108.13,71v47.73q0,22.09-9.33,31.31a28,28,0,0,1-2.74,2.4q-8.7,6.83-21.6,6.81a41.53,41.53,0,0,1-13.54-2.1,24.49,24.49,0,0,1-10.53-7,34.89,34.89,0,0,1-6.85-12.63A61.86,61.86,0,0,1,41,118.68V8.72H0V122.11a93.85,93.85,0,0,0,4.35,29.33,60,60,0,0,0,13.42,22.89,61.72,61.72,0,0,0,23,15q13.94,5.4,33.16,5.4,19.45,0,33.67-5.26A61.14,61.14,0,0,0,131,174.59,59.82,59.82,0,0,0,144.19,153c.2-.48.35-1,.51-1.43a92.85,92.85,0,0,0,4.47-29.47V71Z"/><text class="cls-3" transform="translate(242.5 138.8)">u<tspan class="cls-1" x="78.04" y="0">gig</tspan></text></g></g></svg>