<svg xmlns="http://www.w3.org/2000/svg" viewBox="0 0 506.97 194.72"><defs><style>.cls-1{fill:#fff;}.cls-2{fill:#3b82f6;}</style></defs><g id="Layer_2" data-name="Layer 2"><g id="Layer_1-2" data-name="Layer 1"><path class="cls-1" d="M199.85,53.33a80.91,80.91,0,0,0-18.12-29.21,76.6,76.6,0,0,0-28.18-18Q137.08-.07,116.87,0,93.31.11,77.24,3.4T54,9.57l.35,88.86,40.41-.15-.25-62.43a54.13,54.13,0,0,1,8.43-1.08c3.19-.19,7-.28,11.52-.29a51.75,51.75,0,0,1,21.78,4.19,42,42,0,0,1,15.59,12,52.71,52.71,0,0,1,9.4,18.48,86,86,0,0,1,3.19,24q.1,27.21-12.4,42.92a37.29,37.29,0,0,1-13.89,10.74q-10.92,5-26.85,5.1a88.15,88.15,0,0,1-9-.42v4.21q0,19.31-8.15,27.35a23.48,23.48,0,0,1-2.39,2.1l2.19.36a140.4,140.4,0,0,0,22.92,1.6,104.43,104.43,0,0,0,16.93-1.42,96.13,96.13,0,0,0,18.15-4.93,81.19,81.19,0,0,0,28.57-18.36,86.36,86.36,0,0,0,19.05-29.48q6.93-17.39,6.84-39.92Q206.27,70.63,199.85,53.33Z"/><path class="cls-2" d="M108.13,71v47.73q0,22.09-9.33,31.31a28,28,0,0,1-2.74,2.4q-8.7,6.83-21.6,6.81a41.53,41.53,0,0,1-13.54-2.1,24.49,24.49,0,0,1-10.53-7,34.89,34.89,0,0,1-6.85-12.63A61.86,61.86,0,0,1,41,118.68V8.72H0V122.11a93.85,93.85,0,0,0,4.35,29.33,60,60,0,0,0,13.42,22.89,61.72,61.72,0,0,0,23,15q13.94,5.4,33.16,5.4,19.45,0,33.67-5.26A61.14,61.14,0,0,0,131,174.59,59.82,59.82,0,0,0,144.19,153c.2-.48.35-1,.51-1.43a92.85,92.85,0,0,0,4.47-29.47V71Z"/><path class="cls-2" d="M311.27,136.42a108.94,108.94,0,0,1-13,2.71,106.53,106.53,0,0,1-16.69,1.26A39.67,39.67,0,0,1,266.81,138a22.45,22.45,0,0,1-9.34-6.69,26.08,26.08,0,0,1-4.9-10.27,55.36,55.36,0,0,1-1.46-13.12V69.1h19.75v36.44q0,9.54,2.51,13.78t9.41,4.24c1.41,0,2.92-.06,4.51-.19s3-.29,4.24-.47V69.1h19.74Z"/><path class="cls-1" d="M390,130.06q0,17.08-8.68,25.37t-26.83,8.28a72.92,72.92,0,0,1-12.73-1.12,79.9,79.9,0,0,1-11.79-3L333.4,143a54.59,54.59,0,0,0,21.33,4q8.47,0,12-3.71a13.32,13.32,0,0,0,3.51-9.54v-2.52a32,32,0,0,1-6.56,2.19,35.24,35.24,0,0,1-7.35.72q-14.44,0-22.13-8.54t-7.68-23.92a39.21,39.21,0,0,1,2.38-14,29.83,29.83,0,0,1,7-10.8,31,31,0,0,1,11.2-7,42.73,42.73,0,0,1,15-2.46c2.38,0,4.83.12,7.35.34s5,.51,7.49.86,4.84.77,7.09,1.26,4.26,1,6,1.52ZM346.65,101.7q0,16.56,13.38,16.56a19.78,19.78,0,0,0,5.7-.79,21.64,21.64,0,0,0,4.5-1.86V84.08c-1-.18-2.12-.33-3.44-.47s-2.87-.19-4.64-.19q-7.81,0-11.66,5.16T346.65,101.7Z"/><path class="cls-1" d="M430.12,49a10.83,10.83,0,0,1-3.51,8.55,12.58,12.58,0,0,1-16.56,0A10.83,10.83,0,0,1,406.54,49a10.82,10.82,0,0,1,3.51-8.54,12.55,12.55,0,0,1,16.56,0A10.82,10.82,0,0,1,430.12,49Zm-1.85,89.84H408.53V69.1h19.74Z"/><path class="cls-1" d="M507,130.06q0,17.08-8.67,25.37t-26.84,8.28a72.89,72.89,0,0,1-12.72-1.12,79.9,79.9,0,0,1-11.79-3L450.39,143a54.6,54.6,0,0,0,21.34,4q8.47,0,12-3.71a13.32,13.32,0,0,0,3.51-9.54v-2.52a32,32,0,0,1-6.56,2.19,35.24,35.24,0,0,1-7.35.72q-14.44,0-22.13-8.54t-7.68-23.92a39.21,39.21,0,0,1,2.38-14,29.83,29.83,0,0,1,7-10.8A31,31,0,0,1,464,70a42.83,42.83,0,0,1,15-2.46c2.38,0,4.83.12,7.35.34s5,.51,7.49.86,4.83.77,7.09,1.26,4.26,1,6,1.52ZM463.65,101.7q0,16.56,13.38,16.56a19.78,19.78,0,0,0,5.7-.79,21.64,21.64,0,0,0,4.5-1.86V84.08c-1-.18-2.12-.33-3.44-.47s-2.88-.19-4.64-.19q-7.81,0-11.66,5.16T463.65,101.7Z"/></g></g></svg>